<?xml version="1.0" encoding="utf-8"?>
<!-- Generator: Adobe Illustrator 16.0.0, SVG Export Plug-In . SVG Version: 6.00 Build 0)  -->
<!DOCTYPE svg PUBLIC "-//W3C//DTD SVG 1.1//EN" "http://www.w3.org/Graphics/SVG/1.1/DTD/svg11.dtd">
<svg version="1.1" id="Capa_1" xmlns="http://www.w3.org/2000/svg" xmlns:xlink="http://www.w3.org/1999/xlink" x="0px" y="0px"
	 width="512px" height="512px" viewBox="0 0 512 512" enable-background="new 0 0 512 512" xml:space="preserve">
<g>
	<path fill="none" stroke="#8E8E8D" stroke-width="10" stroke-miterlimit="10" d="M489.83,139.074
		c-0.403-2.303-1.919-4.255-4.056-5.215L312.086,55.684c-2.528-1.139-5.492-0.69-7.569,1.15l-51.106,45.237l-51.107-45.237
		c-2.076-1.839-5.041-2.291-7.566-1.15L21.041,133.86c-2.134,0.959-3.65,2.911-4.053,5.215c-0.405,2.301,0.359,4.652,2.034,6.282
		l54.87,53.221l-30.936,54.623c-1.916,3.383-0.734,7.678,2.641,9.604l30.065,17.158v70.173c0,2.521,1.339,4.847,3.52,6.104
		l170.696,98.752c1.094,0.632,2.313,0.947,3.534,0.947c1.164,0,2.33-0.295,3.383-0.872c-0.003,0.005-0.014,0.011-0.014,0.016
		l170.855-98.841c2.177-1.259,3.522-3.589,3.522-6.103v-70.174l30.066-17.16c3.375-1.926,4.557-6.216,2.639-9.601l-30.933-54.623
		l54.866-53.222C489.471,143.728,490.238,141.376,489.83,139.074z M316.422,248.583l-55.959-32.416v-93.235l148.504,74.663
		L316.422,248.583z M97.851,197.596l148.508-74.664v93.235l-55.964,32.416L97.851,197.596z M36.301,142.461L196.366,70.42
		l44.568,39.447L84.026,188.753L36.301,142.461z M58.695,254.038l26.722-47.185l157.41,86.726l-34.924,45.613L58.695,254.038z
		 M246.357,436.656l-156.59-90.589v-58.055l116.494,66.484c1.098,0.628,2.3,0.93,3.492,0.93c2.132,0,4.227-0.969,5.603-2.767
		l31.001-40.488L246.357,436.656L246.357,436.656z M253.41,283.305l-48.592-26.772l48.592-28.147l48.591,28.148L253.41,283.305z
		 M417.052,346.067l-156.589,90.589V312.171l31,40.485c1.376,1.8,3.473,2.767,5.605,2.767c1.186,0,2.395-0.302,3.489-0.928
		l116.492-66.486L417.052,346.067L417.052,346.067z M448.122,254.038l-149.204,85.154l-34.925-45.614l157.408-86.725
		L448.122,254.038z M422.791,188.753l-156.905-78.887l44.563-39.447l160.065,72.042L422.791,188.753z"/>
</g>
</svg>
