<?xml version="1.0" encoding="utf-8"?>
<!-- Generator: Adobe Illustrator 16.0.0, SVG Export Plug-In . SVG Version: 6.00 Build 0)  -->
<!DOCTYPE svg PUBLIC "-//W3C//DTD SVG 1.1//EN" "http://www.w3.org/Graphics/SVG/1.1/DTD/svg11.dtd">
<svg version="1.1" id="Layer_1" xmlns="http://www.w3.org/2000/svg" xmlns:xlink="http://www.w3.org/1999/xlink" x="0px" y="0px"
	 width="346.667px" height="84px" viewBox="0 0 346.667 84" enable-background="new 0 0 346.667 84" xml:space="preserve">
<text transform="matrix(1 0 0 1 3.4771 82.0313)"><tspan x="0" y="0" fill="#8E8E8E" font-family="'SimplifiedArabic'" font-size="100">HELI  </tspan><tspan x="263.526" y="0" fill="#8E8E8E" font-family="'SimplifiedArabic'" font-size="50"> </tspan><tspan x="279.395" y="0" fill="#8E8E8E" font-family="'SimplifiedArabic'" font-size="100">S </tspan><tspan x="371.143" y="0" fill="#8E8E8E" font-family="'AdobeHeitiStd-Regular-GBpc-EUC-H'" font-size="100">   </tspan></text>
<path fill="#802B55" stroke="#802B55" stroke-miterlimit="10" d="M241.176,17.088c0,0,25.566,1.449,25.566,26.842
	c0,0,0.696,23.306-25.566,24.698c-1.528-0.031-12.338-0.428-19.373-9.425c-4.819-6.165-5.133-12.869-5.138-15.163
	c-0.005-2.656,0.255-4.781,0.466-5.871c1.062-5.479,3.623-9.377,5.252-11.478c0.814,0.76,1.629,1.521,2.443,2.281l0.87,0.696
	l3.479-15.131l-15.654,1.739c0.831,1.08,1.661,2.16,2.492,3.241c-1.413,1.53-3.239,3.774-4.905,6.76
	c-1.389,2.489-4.956,9.167-4.545,17.792c0.107,2.258,1.067,17.192,13.714,26.86c8.477,6.479,17.559,7.042,20.898,7.084
	c2.174,0.008,15.635-0.163,25.631-11.143c8.487-9.323,8.85-20.254,8.862-22.946c0.049-2.013,0.149-16.1-11.288-26.167
	c-9.527-8.384-20.643-8.334-23.205-8.257c2.262,0.021,14.133,0.362,23.631,10.021c9.761,9.925,9.668,22.216,9.615,24.374
	c-0.032,2.108-0.445,14.771-10.936,24.133c-9.147,8.165-19.779,8.341-22.484,8.252c-2.198-0.074-15.271-0.723-24.623-11.641
	c-7.182-8.383-7.864-17.796-7.961-20.745c0.018-2.212,0.256-4.879,0.994-7.813c1.781-7.064,5.53-11.949,7.937-14.587l1.564-1.565
	l-1.912-1.913l9.392-1.044l-2.087,8.523l-1.914-1.913c-1.324,1.412-2.783,3.256-4.065,5.587c-3.281,5.966-3.551,11.748-3.443,14.872
	c0.047,1.735,0.521,12.569,9.558,20.14c6.785,5.683,14.354,6.139,16.735,6.187c0,0,25.566,0.174,26.784-26.437
	C267.96,43.931,269.178,19.639,241.176,17.088"/>
<path fill="#E4A325" stroke="#E4A325" stroke-miterlimit="10" d="M256.721,39.438l-1.682-4.493l2.377-2.493l-5.392-5.624
	l-3.015,2.522l-3.942-2.262v-3.305h-7.855v3.363l-4.232,2.232l-2.984-2.377l-5.16,5.131l2.521,2.87l-1.768,4.435h-3.885v7.218h3.827
	l2.231,4.464l-2.754,2.696l5.102,5.073l2.783-2.29l4.928,1.941l0.029,3.189h6.175c-0.121-1.409-0.242-2.817-0.362-4.225
	l-0.392,3.153h-4.319v-2.493l0.028-0.986l-6.232-2.522l-2.579,1.943l-2.985-2.754l2.318-2.348l-3.188-6.407h-3.131v-4.116
	l4.029,0.029l2.436-6.348l-1.972-2.232l2.755-2.435l2.694,1.652l5.798-3.044v-2.782h4.291l0.086,2.812l5.653,3.131l2.841-2.493
	c1.03,1.069,2.062,2.138,3.092,3.207c-1.132,1.308-2.03,2.349-2.026,2.352c0.005-0.001,1.016,2.403,2.587,6.152l2.666,0.116
	l0.116,4.059l-3.13,0.232l-2.087,5.993l1.855,2.363l-2.609,3.24l-3.073-1.624c-1.057,0.544-2.112,1.088-3.168,1.631
	c1.08-0.321,2.159-0.643,3.241-0.965l2.891,2.087l4.305-4.152l-2.281-2.805l1.759-4.5l4.371-0.326l-0.218-6.935L256.721,39.438z"/>
<path fill="#E4A325" d="M240.453,53.563c0,0-9.541-0.707-9.727-10.11c-0.043-0.715-0.18-4.135,2.356-7.107
	c2.806-3.29,6.699-3.471,7.324-3.489c5.1-0.151,8.277,3.601,8.944,4.396c0.522,0.625,1.406,1.702,1.912,3.376
	c0.855,2.842-0.01,5.319-0.423,6.286c-0.694,1.63-1.664,2.635-2.308,3.279c-1.991,1.989-4.247,2.92-5.74,3.37
	c0.758-0.099,4.797-0.706,7.426-4.331c1.079-1.487,1.872-3.477,1.992-6.134c0.167-3.674-1.885-6.231-2.723-7.204
	c-3.524-4.085-8.621-3.959-9.093-3.94c-0.432,0.019-6.205,0.357-9.131,5.268c-1.523,2.56-1.527,5.109-1.461,6.231
	C229.804,43.453,229.558,53.071,240.453,53.563"/>
<path fill="#802B55" stroke="#802B55" stroke-miterlimit="10" d="M230.652,50.665c0.897-0.778,2.299-1.83,4.216-2.654
	c0.893-0.382,1.759-0.658,2.689-0.88c5.895-1.405,9.276,0.543,13.838-1.504c0.533-0.239,1.347-0.651,2.272-1.34
	c-0.605,0.517-1.553,1.22-2.842,1.791c-1.698,0.753-3.178,0.914-4.551,1.051c-1.588,0.16-1.964,0.02-4.435,0.116
	c-1.467,0.057-2.659,0.158-3.421,0.232c-0.787,0.097-1.672,0.27-2.622,0.551C234.275,48.476,232.333,49.273,230.652,50.665"/>
</svg>
