<?xml version="1.0" encoding="utf-8"?>
<!-- Generator: Adobe Illustrator 16.0.0, SVG Export Plug-In . SVG Version: 6.00 Build 0)  -->
<!DOCTYPE svg PUBLIC "-//W3C//DTD SVG 1.1//EN" "http://www.w3.org/Graphics/SVG/1.1/DTD/svg11.dtd">
<svg version="1.1" id="Layer_1" xmlns="http://www.w3.org/2000/svg" xmlns:xlink="http://www.w3.org/1999/xlink" x="0px" y="0px"
	 width="351.857px" height="94px" viewBox="0 0 351.857 94" enable-background="new 0 0 351.857 94" xml:space="preserve">
<text transform="matrix(1 0 0 1 0 87.5313)"><tspan x="0" y="0" fill="#8E8E8E" font-family="'ArialNarrow-Bold'" font-size="108">HELI   </tspan><tspan x="275.59" y="0" fill="#8E8E8E" font-family="'ArialNarrow-Bold'" font-size="10"> </tspan><tspan x="277.87" y="0" fill="#8E8E8E" font-family="'ArialNarrow-Bold'" font-size="108">S    </tspan></text>
<g>
	<g>
		<path fill="#E4A326" d="M201.832,49.223c0-6.182,1.471-12.02,4.079-17.186l3.479,2.328c0,0-7.526,9.754-3.479,25.633
			c4.05,15.876,16.494,21.956,29.548,27.138C216.521,84.885,201.832,68.771,201.832,49.223z"/>
		<g>
			<path fill="#E4A326" d="M205.781,32.038l-3.521-2.718l15.631-6.854l-2.672,16.856l-3.31-2.555
				c-1.699,3.806-2.645,8.02-2.645,12.456c0,16.914,13.71,30.625,30.623,30.625c9.947,0,18.781-4.744,24.378-12.09
				c0,0-1.49,8.686-6.315,15.111c-5.376,2.891-11.527,4.538-18.063,4.538c-1.541,0-3.064-0.091-4.557-0.271
				c-13.055-5.183-25.503-11.262-29.55-27.138c-4.047-15.879,3.483-25.633,3.483-25.633L205.781,32.038z"/>
			<path fill="#E4A326" d="M270.855,71.564c-3.395,4.676-7.832,8.554-12.969,11.306c4.849-6.426,6.346-15.111,6.346-15.111
				L270.855,71.564z"/>
		</g>
		<g>
			<path fill="#E4A326" d="M270.476,47.764l7.494-1.322c0.067,0.919,0.103,1.847,0.103,2.781c0,5.637-1.224,10.989-3.414,15.804
				C274.659,65.027,275.354,53.865,270.476,47.764z"/>
			<path fill="#E4A326" d="M270.536,49.223c0-0.49-0.012-0.976-0.036-1.459c4.928,6.101,4.226,17.264,4.226,17.264l-6.655-3.803
				C269.656,57.539,270.536,53.482,270.536,49.223z"/>
		</g>
		<g>
			<path fill="#E4A326" d="M262.359,28.421l4.891-5.83c4.405,4.525,7.696,10.139,9.435,16.399
				C276.684,38.99,272.478,32.57,262.359,28.421z"/>
			<path fill="#E4A326" d="M262.359,28.258c10.119,4.207,14.325,10.715,14.325,10.715l-7.493,1.338
				C267.828,35.763,265.466,31.658,262.359,28.258z"/>
		</g>
		<g>
			<path fill="#E4A326" d="M243.669,18.8v-7.577c6.562,0.644,12.637,2.94,17.797,6.467C261.466,17.691,250.851,15.643,243.669,18.8z
				"/>
			<path fill="#E4A326" d="M243.669,18.692c7.182-3.23,17.797-1.135,17.797-1.135l-4.89,5.937
				C252.772,20.971,248.387,19.283,243.669,18.692z"/>
		</g>
		<polygon fill="#E4A326" points="202.259,29.319 211.341,30.792 217.89,22.466 		"/>
	</g>
</g>
<g>
	<path fill="#802B55" d="M234.703,29.361l-3.049-4.175l-4.669,2.176l1.303,4.836l0.071,0.144c-1.365,0.956-2.603,2.078-3.698,3.325
		l-0.036-0.03l-4.836-1.805l-2.69,4.389l3.776,3.317l0.192,0.098c-0.522,1.317-0.833,2.702-1.078,4.136l0.092-0.004l-4.765,0.998
		v5.148l4.324,0.326h0.201c0.187,1.475,0.454,2.421,0.809,3.449l-0.058,0.292l-3.966,3.313l2.477,4.518l4.737-1.621l0.167-0.092
		c0.686,0.86,1.441,1.655,2.248,2.396l-0.03,0.047l-1.883,4.811l4.341,2.771l3.376-3.702l0.082-0.129
		c1.004,0.422,2.062,0.749,3.138,1.011l-0.004,0.035l0.661,5.125l5.142,0.341l1.185-4.87l0.006-0.128
		c1.118-0.115,2.195-0.338,3.248-0.624l0.007,0.008l3.04,4.175l4.674-2.172l-1.306-4.84l-0.046-0.101
		c1.379-0.954,2.625-2.08,3.735-3.332l4.822,1.797l2.702-4.385l-3.755-3.32l-0.068-0.05c0.536-1.332,0.938-2.732,1.189-4.189
		l5.049-0.988v-5.15l-4.976-0.82h-0.094c-0.187-1.477-0.463-2.215-0.828-3.259l3.934-3.3l-2.479-4.517l-4.738,1.62l-0.081,0.044
		c-0.695-0.872-1.465-1.676-2.289-2.421l1.874-4.789l-4.344-2.766l-3.376,3.7l-0.054,0.082c-1.012-0.426-2.076-0.752-3.166-1.013
		l-0.662-5.111l-5.136-0.339l-1.18,4.869l-0.012,0.126c-1.117,0.118-2.194,0.341-3.248,0.629L234.703,29.361z M240.168,35.849
		c7.41,0.002,13.417,6.012,13.414,13.42c-0.001,7.41-6.007,13.416-13.421,13.415c-7.411,0-13.413-6.009-13.412-13.419
		C226.75,41.852,232.757,35.849,240.168,35.849z"/>
</g>
</svg>
