<?xml version="1.0" encoding="utf-8"?>
<!-- Generator: Adobe Illustrator 16.0.0, SVG Export Plug-In . SVG Version: 6.00 Build 0)  -->
<!DOCTYPE svg PUBLIC "-//W3C//DTD SVG 1.1//EN" "http://www.w3.org/Graphics/SVG/1.1/DTD/svg11.dtd">
<svg version="1.1" id="Capa_1" xmlns="http://www.w3.org/2000/svg" xmlns:xlink="http://www.w3.org/1999/xlink" x="0px" y="0px"
	 width="512px" height="512px" viewBox="0 0 512 512" enable-background="new 0 0 512 512" xml:space="preserve">
<g>
	<g>
		<path fill="none" stroke="#8E8E8D" stroke-width="10" stroke-miterlimit="10" d="M428.741,29.717H196.025
			c-12.771,0-23.979,6.629-30.472,16.606h21.452c2.778-1.26,5.781-2.064,9.021-2.064h232.716c12.025,0,21.806,9.778,21.806,21.809
			v302.176c0,11.08-8.409,19.896-19.12,21.271c-0.702,5.514-2.536,10.646-5.438,15.064h2.754c20.061,0,36.364-16.297,36.364-36.344
			V66.053C465.109,46.023,448.802,29.717,428.741,29.717z"/>
		<path fill="none" stroke="#8E8E8D" stroke-width="10" stroke-miterlimit="10" d="M378.909,62.933H146.2
			c-12.771,0-23.979,6.639-30.479,16.616h21.459c2.777-1.26,5.774-2.073,9.021-2.073h232.708c12.06,0,21.825,9.78,21.825,21.816
			v302.183c0,11.076-8.424,19.869-19.116,21.246c-0.7,5.506-2.554,10.639-5.438,15.09h2.739c20.071,0,36.396-16.293,36.396-36.367
			V99.294C415.29,79.24,398.98,62.933,378.909,62.933z"/>
		<path fill="none" stroke="#8E8E8D" stroke-width="10" stroke-miterlimit="10" d="M329.074,96.156H96.368
			C76.306,96.156,60,112.45,60,132.51v302.186c0,20.047,16.308,36.354,36.368,36.354h232.706c20.072,0,36.396-16.293,36.396-36.354
			V132.509C365.475,112.464,349.146,96.156,329.074,96.156z M350.908,434.694c0,12.019-9.789,21.814-21.834,21.814H96.368
			c-12.044,0-21.826-9.787-21.826-21.814V132.509c0-12.025,9.778-21.819,21.826-21.819h232.706c12.045,0,21.834,9.794,21.834,21.819
			V434.694L350.908,434.694z"/>
		<path fill="none" stroke="#8E8E8D" stroke-width="10" stroke-miterlimit="10" d="M234.963,288.988
			c16.312-10.944,27.546-32.602,27.546-52.083c0-27.504-22.264-49.812-49.781-49.812c-27.506,0-49.771,22.311-49.771,49.812
			c0,19.482,11.235,41.139,27.501,52.083c-38.944,9.89-67.861,43.777-67.861,68.881c0,29.654,180.311,29.654,180.311,0
			C302.88,332.768,273.986,298.877,234.963,288.988z M212.73,380.084l-25.284-25.229l21.264-51.402h-0.229l-8.246-9.491
			c4.016,1.438,8.146,2.313,12.482,2.313c4.345,0,8.462-0.862,12.461-2.271l-8.267,9.438h-0.185l21.276,51.398L212.73,380.084z"/>
	</g>
</g>
</svg>
