<?xml version="1.0" encoding="utf-8"?>
<!-- Generator: Adobe Illustrator 16.0.0, SVG Export Plug-In . SVG Version: 6.00 Build 0)  -->
<!DOCTYPE svg PUBLIC "-//W3C//DTD SVG 1.1//EN" "http://www.w3.org/Graphics/SVG/1.1/DTD/svg11.dtd">
<svg version="1.1" id="Capa_1" xmlns="http://www.w3.org/2000/svg" xmlns:xlink="http://www.w3.org/1999/xlink" x="0px" y="0px"
	 width="512px" height="512px" viewBox="0 0 512 512" enable-background="new 0 0 512 512" xml:space="preserve">
<g>
	<g>
		<path fill="none" stroke="#8E8E8D" stroke-width="10" stroke-miterlimit="10" d="M496.398,438.821L265.25,38.469
			c-2.044-3.544-5.828-5.726-9.92-5.726c-4.09,0-7.874,2.182-9.921,5.726L13.536,440.074c-2.049,3.545-2.049,7.911,0,11.459
			c2.043,3.546,5.829,5.726,9.92,5.726H487.2c0.037,0,0.075,0,0.114,0c6.324,0,11.457-5.125,11.457-11.46
			C498.773,443.172,497.887,440.758,496.398,438.821z M43.3,434.345L255.332,67.107l212.031,367.238H43.3L43.3,434.345z"/>
		<path fill="none" stroke="#8E8E8D" stroke-width="10" stroke-miterlimit="10" d="M243.875,183.055v164.32
			c0,6.331,5.13,11.457,11.456,11.457c6.328,0,11.458-5.124,11.458-11.457v-164.32c0-6.321-5.13-11.456-11.458-11.456
			C249.004,171.602,243.875,176.735,243.875,183.055z"/>
		<path fill="none" stroke="#8E8E8D" stroke-width="10" stroke-miterlimit="10" d="M255.332,372.18
			c-7.854,0-14.227,6.364-14.227,14.219c0,7.855,6.371,14.231,14.227,14.231c7.854,0,14.226-6.378,14.226-14.231
			C269.557,378.544,263.186,372.18,255.332,372.18z"/>
	</g>
</g>
</svg>
