<?xml version="1.0" encoding="utf-8"?>
<!-- Generator: Adobe Illustrator 16.0.0, SVG Export Plug-In . SVG Version: 6.00 Build 0)  -->
<!DOCTYPE svg PUBLIC "-//W3C//DTD SVG 1.1//EN" "http://www.w3.org/Graphics/SVG/1.1/DTD/svg11.dtd">
<svg version="1.1" id="Capa_1" xmlns="http://www.w3.org/2000/svg" xmlns:xlink="http://www.w3.org/1999/xlink" x="0px" y="0px"
	 width="512px" height="512px" viewBox="0 0 512 512" enable-background="new 0 0 512 512" xml:space="preserve">
<g>
	<g>
		<g>
			<path fill="none" stroke="#8E8E8D" stroke-width="10" stroke-miterlimit="10" d="M252.303,292.064l27.127-27.187l-27.721-27.642
				l-27.086,27.11c-11.33-7.716-24.298-13.053-38.237-15.741V210.19H147.24v38.436c-13.9,2.709-26.853,8.026-38.199,15.737
				L81.876,237.26L54.236,264.9l27.049,27.187c-7.611,11.271-12.989,24.22-15.698,38.236H27.17v39.127h38.415
				c2.708,13.899,8.085,26.851,15.698,38.237l-27.049,27.104l27.643,27.64l27.146-27.104c11.329,7.67,24.298,13.05,38.217,15.759
				V489.5h39.129v-38.453c13.938-2.709,26.866-8.064,38.235-15.76l27.087,27.064l27.723-27.618l-27.125-27.105
				c7.711-11.349,13.025-24.299,15.693-38.258h38.494v-39.085H268C265.332,316.284,260.014,303.395,252.303,292.064z
				 M166.833,392.541c-23.527,0-42.706-19.118-42.706-42.705c0-23.588,19.178-42.688,42.706-42.688
				c23.563,0,42.646,19.1,42.646,42.688C209.48,373.425,190.42,392.541,166.833,392.541z"/>
			<path fill="none" stroke="#8E8E8D" stroke-width="10" stroke-miterlimit="10" d="M478.564,329.295l0.275-0.199L288.445,137.692
				l-0.297-90.057L196.014,23l-9.806,9.827L235.201,81.7l-47.729,47.826L138.52,80.613l-9.846,9.769l24.712,92.034l87.627,0.297
				l-0.575,0.475l191.641,192.647l0.261-0.237c12.771,12.496,33.373,12.496,45.944-0.217
				C491.035,362.706,491.06,342.203,478.564,329.295z M466.188,363.221c-5.692,5.676-14.89,5.695-20.541,0
				c-5.637-5.675-5.694-14.811-0.061-20.502c5.713-5.652,14.903-5.652,20.602-0.021
				C471.822,348.332,471.881,357.508,466.188,363.221z"/>
		</g>
	</g>
</g>
</svg>
