<?xml version="1.0" encoding="utf-8"?>
<!-- Generator: Adobe Illustrator 16.0.0, SVG Export Plug-In . SVG Version: 6.00 Build 0)  -->
<!DOCTYPE svg PUBLIC "-//W3C//DTD SVG 1.1//EN" "http://www.w3.org/Graphics/SVG/1.1/DTD/svg11.dtd">
<svg version="1.1" id="Capa_1" xmlns="http://www.w3.org/2000/svg" xmlns:xlink="http://www.w3.org/1999/xlink" x="0px" y="0px"
	 width="512px" height="512px" viewBox="0 0 512 512" enable-background="new 0 0 512 512" xml:space="preserve">
<g>
	<path fill="none" stroke="#8E8E8D" stroke-width="10" stroke-miterlimit="10" d="M480.601,178.97v-29.444l-2.173-8.174
		c-0.658-0.98-10.458-18.102-30.137-35.703c-19.631-17.522-50.022-35.751-89.989-35.751c-40.031,0-70.102,18.294-89.313,35.881
		c-5.937,5.471-10.938,10.844-15.025,15.719c-4.248-4.939-9.429-10.346-15.527-15.832c-19.596-17.539-49.991-35.768-89.958-35.768
		c-40.063,0-70.119,18.294-89.379,35.881c-19.291,17.666-28.719,34.882-29.251,35.864l-2.075,7.883v29.444H13V424.5h487.81V178.97
		H480.601L480.601,178.97z M100.335,374.702c13.049-7.708,28.943-13.322,48.14-13.354c19.115,0,35.222,5.631,48.562,13.354H100.335z
		 M310.226,374.702c13.063-7.708,28.978-13.322,48.076-13.354c19.131,0,35.221,5.631,48.605,13.354H310.226z M447.552,363.471
		c-19.646-17.345-49.687-35.105-89.25-35.105c-38.841-0.032-68.349,17.246-87.577,34.316V308.91l-33.095-14.305v68.85
		c-19.549-17.281-49.687-35.109-89.154-35.109h-0.063c-38.872,0-68.317,17.25-87.544,34.319V154.208
		c3.428-5.181,10.813-15.43,21.996-25.292c15.331-13.516,36.797-25.92,65.611-25.92c29.573,0,52.102,13.323,67.98,27.368
		c7.788,6.983,13.917,14.079,17.812,19.324c1.415,1.787,2.542,3.459,3.362,4.715v90.908l33.095,14.173V154.208
		c3.428-5.149,10.813-15.43,21.996-25.292c15.396-13.516,36.893-25.92,65.581-25.92c29.604,0,52.163,13.323,68.061,27.368
		c7.853,6.983,13.821,14.079,17.778,19.324c1.384,1.787,2.479,3.459,3.396,4.715L447.552,363.471L447.552,363.471z"/>
	<path fill="none" stroke="#8E8E8D" stroke-width="10" stroke-miterlimit="10" d="M230.115,254.077l-7.949,15.881l96.729,52.065
		c20.209-4.65,12.406-22.461,12.406-22.461L230.115,254.077z"/>
	<path fill="none" stroke="#8E8E8D" stroke-width="10" stroke-miterlimit="10" d="M184.083,165.037
		c-34.03-17.152-75.542-3.427-92.646,30.635c-17.149,34.029-3.492,75.541,30.571,92.708c32.178,16.155,70.89,4.845,89.587-25.083
		l0.162-0.322c3.49-5.937,4.778-8.27,6.194-12.824C229.745,217.747,215.667,180.885,184.083,165.037z M199.352,249.959
		c-12.92,25.55-44.021,35.864-69.572,23.008c-25.55-12.855-35.799-44.022-22.942-69.54c12.792-25.551,43.958-35.865,69.476-23.008
		C201.894,193.306,212.144,224.424,199.352,249.959z"/>
</g>
</svg>
