<?xml version="1.0" encoding="utf-8"?>
<!-- Generator: Adobe Illustrator 16.0.0, SVG Export Plug-In . SVG Version: 6.00 Build 0)  -->
<!DOCTYPE svg PUBLIC "-//W3C//DTD SVG 1.1//EN" "http://www.w3.org/Graphics/SVG/1.1/DTD/svg11.dtd">
<svg version="1.1" id="Capa_1" xmlns="http://www.w3.org/2000/svg" xmlns:xlink="http://www.w3.org/1999/xlink" x="0px" y="0px"
	 width="512px" height="512px" viewBox="0 0 512 512" enable-background="new 0 0 512 512" xml:space="preserve">
<g>
	<g id="Layer_1_153_">
		<g>
			<path fill="none" stroke="#8E8E8D" stroke-width="10" stroke-miterlimit="10" d="M257.005,142.259
				c11.797,0,21.367-9.571,21.367-21.356V67.488c0-11.802-9.57-21.373-21.367-21.373c-11.793,0-21.362,9.571-21.362,21.373v10.679
				h-50.739v42.736h50.739C235.643,132.688,245.203,142.259,257.005,142.259z"/>
			<path fill="none" stroke="#8E8E8D" stroke-width="10" stroke-miterlimit="10" d="M371.829,142.259
				c11.81,0,21.367-9.571,21.367-21.356V67.488c0-11.802-9.568-21.373-21.367-21.373c-11.775,0-21.349,9.571-21.349,21.373v10.679
				h-50.744v42.736h50.744C350.484,132.688,360.032,142.259,371.829,142.259z"/>
			<path fill="none" stroke="#8E8E8D" stroke-width="10" stroke-miterlimit="10" d="M470.643,78.166h-56.076v42.736h34.709v64.087
				H64.731v-64.087h56.081c0,11.798,9.568,21.356,21.362,21.356c11.788,0,21.359-9.571,21.359-21.356V67.488
				c0-11.802-9.571-21.373-21.359-21.373c-11.793,0-21.362,9.571-21.362,21.373v10.679H43.363C31.561,78.166,22,87.736,22,99.529
				v320.45c0,11.817,9.569,21.379,21.361,21.379h109.739c-9.17-12.704-16.042-27.157-20.06-42.734H64.731v-192.27h384.544v192.27
				h-68.303c-4.023,15.597-10.898,30.03-20.062,42.734H470.64c11.813,0,21.376-9.57,21.376-21.379V99.529
				C492.01,87.728,482.44,78.166,470.643,78.166z"/>
			<path fill="none" stroke="#8E8E8D" stroke-width="10" stroke-miterlimit="10" d="M307.65,384.607l-33.81-19.512
				c-0.448-5.141-3.125-9.631-7.129-12.425v-58.926c0-5.372-4.354-9.718-9.718-9.718c-5.36,0-9.714,4.346-9.714,9.718v58.926
				c-4.389,3.087-7.278,8.146-7.278,13.929c0,9.363,7.632,16.973,16.992,16.973c2.566,0,4.979-0.624,7.17-1.641l33.77,19.5
				c1.532,0.881,3.203,1.301,4.854,1.301c3.353,0,6.621-1.738,8.419-4.844C313.9,393.24,312.298,387.293,307.65,384.607z
				 M257.005,373.865c-4.009,0-7.28-3.271-7.28-7.286c0-4.004,3.271-7.285,7.28-7.285c4.003,0,7.285,3.265,7.285,7.285
				C264.29,370.596,261.008,373.865,257.005,373.865z"/>
			<path fill="none" stroke="#8E8E8D" stroke-width="10" stroke-miterlimit="10" d="M257.005,259.762
				c-58.903,0-106.824,47.92-106.824,106.838c0,58.896,47.921,106.816,106.824,106.816c58.905,0,106.817-47.92,106.817-106.816
				C363.823,307.682,315.91,259.762,257.005,259.762z M257.005,453.975c-48.189,0-87.39-39.201-87.39-87.396
				c0-48.203,39.199-87.386,87.39-87.386c48.185,0,87.384,39.201,87.384,87.386C344.389,414.766,305.189,453.975,257.005,453.975z"
				/>
		</g>
	</g>
</g>
</svg>
