<?xml version="1.0" encoding="utf-8"?>
<!-- Generator: Adobe Illustrator 16.0.0, SVG Export Plug-In . SVG Version: 6.00 Build 0)  -->
<!DOCTYPE svg PUBLIC "-//W3C//DTD SVG 1.1//EN" "http://www.w3.org/Graphics/SVG/1.1/DTD/svg11.dtd">
<svg version="1.1" id="Capa_1" xmlns="http://www.w3.org/2000/svg" xmlns:xlink="http://www.w3.org/1999/xlink" x="0px" y="0px"
	 width="512px" height="512px" viewBox="0 0 512 512" enable-background="new 0 0 512 512" xml:space="preserve">
<g>
	<path fill="none" stroke="#8E8E8D" stroke-width="10" stroke-miterlimit="10" d="M304.851,120.31l8.268-17.336
		c6.825-14.323,18.126-25.578,32.042-32.292h-60.577c5.087,9.211,4.521,19.434-4.149,29.545
		C292.752,100.227,302.674,109.015,304.851,120.31z"/>
	<path fill="none" stroke="#8E8E8D" stroke-width="10" stroke-miterlimit="10" d="M472.344,70.681H415.13
		c21.585,17.164,19.156,40.395,1.832,47.617l-8.563,3.569c44.11,0,43.813-4.07,43.813,23.206c5.868,12.178,5.432,26.125,0,38
		v145.302c0,6.2-5.026,11.225-11.226,11.225H74.135c-6.199,0-11.224-5.023-11.224-11.225V170.84
		c-6.34-9.314-4.259-18.174-4.259-45.779c0-13.619,11.021-24.833,24.873-24.833c-7.563-7.553-9.781-19.253-4.116-29.545H42.779
		C28.614,70.681,17.125,82.17,17.125,96.336v271.37c0,14.166,11.486,25.653,25.652,25.653h170.047l-22.902,55.102h-10.505
		c-9.125,0-16.529,7.404-16.529,16.533c0,9.125,7.403,16.529,16.529,16.529h156.281c9.128,0,16.532-7.404,16.532-16.529
		c0-9.129-7.404-16.533-16.532-16.533h-10.503l-22.898-55.102H472.34c14.165,0,25.651-11.487,25.651-25.653V96.336
		C498,82.17,486.509,70.681,472.344,70.681z M389.363,376.76c-6.637,0-12.021-5.386-12.021-12.021
		c0-6.64,5.383-12.022,12.021-12.022c6.64,0,12.023,5.385,12.023,12.022C401.387,371.374,396.002,376.76,389.363,376.76z
		 M428.435,376.76c-6.637,0-12.021-5.386-12.021-12.021c0-6.64,5.385-12.022,12.021-12.022c6.64,0,12.021,5.385,12.021,12.022
		C440.456,371.374,435.073,376.76,428.435,376.76z"/>
	<path fill="none" stroke="#8E8E8D" stroke-width="10" stroke-miterlimit="10" d="M107.633,101.651
		c-2.457,4.634-4.509,9.509-6.074,14.604c-11.836,0-26.875-2.73-26.875,8.805c0,44.551-4.539,40.691,26.86,40.691
		c1.583,5.095,3.632,9.98,6.089,14.613c-18.675,18.667-21.118,16.938-5.229,32.817c9.939-10.754,19.271-12.664,48.494-24.842
		c-15.399-10.152-25.607-27.55-25.607-47.33c0-31.268,25.437-56.705,56.695-56.705c35.235,0,62.678,32.176,55.585,67.912
		l51.734-21.571c0-16.725-4.493-14.394-26.878-14.394c-1.563-5.095-3.63-9.979-6.087-14.613c8.356-8.367,20.96-17.101,12.806-25.257
		c-31.684-31.69-25.578-31.95-47.806-9.729c-4.634-2.457-9.502-4.516-14.619-6.073c0-11.811,2.723-26.877-8.784-26.877
		c-44.55,0-40.682-4.555-40.682,26.877c-5.104,1.557-9.988,3.616-14.62,6.073c-8.359-8.367-17.077-20.943-25.249-12.804
		C85.907,85.318,85.375,79.407,107.633,101.651z"/>
	<path fill="none" stroke="#8E8E8D" stroke-width="10" stroke-miterlimit="10" d="M181.988,100.337
		c-22.433,0-40.669,18.243-40.669,40.675c0,18.581,12.584,34.124,29.635,38.97l46.459-19.364
		C232.894,132.716,212.136,100.337,181.988,100.337z"/>
	<path fill="none" stroke="#8E8E8D" stroke-width="10" stroke-miterlimit="10" d="M314.4,137.56l-189.798,79.105
		c-36.599,15.254-14.023,71.425,23.309,55.899l189.813-79.1c49.467,17.33,51.501,19.497,88.806-4.156
		c20.489-13,15.792-45.52,3.226-40.323l-33.248,13.846c-5.809,2.425-12.521-0.314-14.966-6.176
		c-16.844-40.386-19.394-32.88,29.258-53.15c12.191-5.08-7.015-31.605-30.917-26.087l-16.496,3.765
		C334.014,87.892,327.394,110.252,314.4,137.56z"/>
</g>
</svg>
