<?xml version="1.0" encoding="utf-8"?>
<!-- Generator: Adobe Illustrator 16.0.0, SVG Export Plug-In . SVG Version: 6.00 Build 0)  -->
<!DOCTYPE svg PUBLIC "-//W3C//DTD SVG 1.1//EN" "http://www.w3.org/Graphics/SVG/1.1/DTD/svg11.dtd">
<svg version="1.1" id="Layer_1" xmlns="http://www.w3.org/2000/svg" xmlns:xlink="http://www.w3.org/1999/xlink" x="0px" y="0px"
	 width="512px" height="512px" viewBox="0 0 512 512" enable-background="new 0 0 512 512" xml:space="preserve">
<g>
	<path fill="none" stroke="#8E8E8D" stroke-width="10" stroke-miterlimit="10" d="M497.727,459.47L371.064,332.807
		c-3.031-3.029-7.946-3.029-10.978,0l-9.151,9.149l-18.422-18.419c31.297-33.989,48.446-77.829,48.446-124.309
		c0-49.076-19.111-95.215-53.814-129.917c-34.7-34.7-80.837-53.811-129.914-53.811S102.016,34.61,67.314,69.314
		C32.612,104.017,13.5,150.156,13.5,199.232c0,49.077,19.106,95.216,53.813,129.917c34.703,34.701,80.841,53.815,129.917,53.815
		c46.48,0,90.32-17.151,124.307-48.444l18.424,18.422l-9.15,9.148c-3.029,3.028-3.029,7.946,0,10.979L457.472,499.73
		c1.517,1.516,3.504,2.273,5.487,2.273c1.985,0,3.976-0.759,5.487-2.273l29.278-29.277
		C500.757,467.417,500.757,462.501,497.727,459.47z M78.293,318.17c-31.771-31.77-49.269-74.009-49.269-118.938
		c0-44.928,17.497-87.167,49.269-118.938c31.771-31.771,74.013-49.266,118.938-49.266c44.931,0,87.169,17.497,118.939,49.266
		c31.77,31.769,49.268,74.011,49.268,118.938c0,44.928-17.496,87.168-49.268,118.938c-31.771,31.771-74.01,49.268-118.939,49.268
		C152.303,367.438,110.063,349.941,78.293,318.17z M462.959,483.258L347.276,367.574l18.3-18.299L481.26,464.957L462.959,483.258z"
		/>
	<path fill="none" stroke="#8E8E8D" stroke-width="10" stroke-miterlimit="10" d="M197.231,160.415
		c-21.399,0-38.814,17.413-38.814,38.816c0,21.404,17.413,38.817,38.814,38.817c21.404,0,38.819-17.413,38.819-38.817
		C236.049,177.828,218.636,160.415,197.231,160.415z M197.231,222.522c-12.842,0-23.29-10.448-23.29-23.29
		c0-12.842,10.448-23.29,23.29-23.29c12.847,0,23.292,10.447,23.292,23.29C220.522,212.075,210.074,222.522,197.231,222.522z"/>
	<path fill="none" stroke="#8E8E8D" stroke-width="10" stroke-miterlimit="10" d="M260.282,169.117l18.354-18.356
		c2.679-2.68,3.031-6.904,0.834-9.993c-6.562-9.217-14.563-17.217-23.778-23.779c-3.088-2.199-7.312-1.845-9.99,0.834
		l-18.355,18.356c-2.229-1.068-4.506-2.016-6.825-2.837v-25.957c0-3.792-2.742-7.029-6.478-7.656
		c-5.611-0.943-11.27-1.42-16.813-1.42s-11.198,0.477-16.81,1.42c-3.741,0.627-6.479,3.864-6.479,7.656v25.958
		c-2.314,0.822-4.596,1.77-6.822,2.837l-18.356-18.356c-2.679-2.679-6.903-3.031-9.992-0.835
		c-9.216,6.563-17.217,14.563-23.777,23.78c-2.198,3.088-1.845,7.312,0.835,9.992l18.354,18.356
		c-1.066,2.228-2.014,4.506-2.836,6.824h-25.963c-3.792,0-7.028,2.738-7.658,6.478c-0.941,5.613-1.421,11.269-1.421,16.813
		c0,5.542,0.479,11.2,1.421,16.812c0.626,3.74,3.863,6.478,7.658,6.478h25.957c0.822,2.318,1.767,4.596,2.836,6.825l-18.355,18.355
		c-2.678,2.679-3.028,6.904-0.834,9.993c6.563,9.216,14.563,17.217,23.777,23.779c3.089,2.195,7.312,1.842,9.994-0.836
		l18.354-18.354c2.229,1.067,4.508,2.015,6.824,2.837v25.957c0,3.792,2.739,7.027,6.479,7.656c5.608,0.941,11.267,1.422,16.81,1.422
		c5.544,0,11.201-0.479,16.813-1.422c3.739-0.625,6.478-3.861,6.478-7.656v-25.957c2.316-0.822,4.596-1.768,6.825-2.837
		l18.354,18.354c2.68,2.68,6.904,3.031,9.992,0.836c9.216-6.563,17.217-14.563,23.779-23.781c2.197-3.087,1.843-7.313-0.835-9.991
		l-18.354-18.355c1.067-2.227,2.017-4.506,2.839-6.824h25.954c3.793,0,7.029-2.739,7.657-6.478c0.941-5.611,1.42-11.269,1.42-16.812
		s-0.477-11.2-1.42-16.812c-0.625-3.739-3.859-6.478-7.657-6.478h-25.954C262.297,173.624,261.351,171.345,260.282,169.117
		L260.282,169.117z M282.628,199.232c0,2.563-0.12,5.158-0.362,7.763h-24.884c-3.543,0-6.635,2.398-7.52,5.83
		c-1.256,4.883-3.214,9.592-5.815,13.997c-1.802,3.05-1.313,6.935,1.194,9.44l17.6,17.599c-3.321,3.987-6.992,7.659-10.981,10.979
		l-17.599-17.601c-2.507-2.504-6.39-2.997-9.44-1.194c-4.406,2.604-9.117,4.561-13.994,5.819c-3.432,0.883-5.829,3.976-5.829,7.518
		v24.886c-5.209,0.481-10.317,0.481-15.528,0v-24.886c0-3.542-2.396-6.635-5.83-7.518c-4.882-1.257-9.592-3.214-13.995-5.817
		c-3.051-1.802-6.936-1.311-9.439,1.194l-17.601,17.6c-3.985-3.321-7.659-6.991-10.979-10.979l17.599-17.599
		c2.506-2.505,2.996-6.389,1.194-9.439c-2.604-4.408-4.563-9.118-5.818-13.999c-0.883-3.431-3.976-5.829-7.518-5.829h-24.883
		c-0.24-2.605-0.363-5.201-0.363-7.764c0-2.562,0.123-5.158,0.363-7.763h24.885c3.543,0,6.634-2.397,7.518-5.827
		c1.256-4.882,3.214-9.591,5.818-13.998c1.802-3.05,1.312-6.934-1.194-9.439l-17.599-17.599c3.32-3.987,6.991-7.657,10.979-10.979
		l17.601,17.599c2.505,2.504,6.391,2.997,9.438,1.194c4.408-2.605,9.119-4.562,13.996-5.819c3.43-0.882,5.829-3.975,5.829-7.518
		v-24.885c5.208-0.483,10.316-0.483,15.526,0v24.884c0,3.542,2.396,6.636,5.831,7.518c4.88,1.255,9.591,3.212,13.994,5.818
		c3.051,1.802,6.936,1.31,9.44-1.194l17.599-17.6c3.987,3.322,7.658,6.992,10.979,10.98l-17.601,17.599
		c-2.505,2.504-2.994,6.39-1.192,9.439c2.603,4.406,4.562,9.116,5.815,13.997c0.886,3.43,3.979,5.828,7.52,5.828h24.884
		C282.508,194.074,282.628,196.67,282.628,199.232L282.628,199.232z"/>
	<path fill="none" stroke="#8E8E8D" stroke-width="10" stroke-miterlimit="10" d="M308.806,110.866
		c-2.668-3.357-7.547-3.92-10.907-1.253c-3.355,2.665-3.918,7.549-1.253,10.907c40.018,50.411,35.825,122.794-9.755,168.373
		c-49.438,49.44-129.88,49.44-179.322,0c-49.437-49.438-49.438-129.885,0.002-179.323c45.579-45.581,117.965-49.771,168.37-9.754
		c3.356,2.666,8.243,2.105,10.907-1.253s2.104-8.242-1.254-10.908C229.004,42.73,147.751,47.43,96.591,98.59
		c-55.492,55.494-55.492,145.788,0,201.281c27.747,27.747,64.195,41.621,100.64,41.621c36.447,0,72.896-13.874,100.64-41.621
		C349.029,248.712,353.733,167.458,308.806,110.866L308.806,110.866z"/>
</g>
</svg>
