<?xml version="1.0" encoding="utf-8"?>
<!-- Generator: Adobe Illustrator 16.0.0, SVG Export Plug-In . SVG Version: 6.00 Build 0)  -->
<!DOCTYPE svg PUBLIC "-//W3C//DTD SVG 1.1//EN" "http://www.w3.org/Graphics/SVG/1.1/DTD/svg11.dtd">
<svg version="1.1" id="Capa_1" xmlns="http://www.w3.org/2000/svg" xmlns:xlink="http://www.w3.org/1999/xlink" x="0px" y="0px"
	 width="512px" height="512px" viewBox="0 0 512 512" enable-background="new 0 0 512 512" xml:space="preserve">
<g>
	<g id="XMLID_39_">
		<g>
			<polygon fill="#8E8E8D" points="437.551,409.813 358.159,489.201 358.159,409.813 			"/>
			<polygon fill="none" points="437.551,22.798 437.551,409.813 358.159,409.813 358.159,489.201 80.305,489.201 80.305,22.798 			
				"/>
		</g>
		<path fill="none" stroke="#8E8E8D" stroke-width="10" stroke-miterlimit="10" d="M447.473,22.798c0-5.48-4.44-9.923-9.922-9.923
			H80.305c-5.479,0-9.923,4.441-9.923,9.923v466.403c0,5.479,4.442,9.924,9.923,9.924H358.15c0.002,0,0.006,0,0.01,0
			c2.582,0,5.121-1.011,7.021-2.906l79.387-79.389c1.897-1.896,2.883-4.438,2.885-7.02h0.021L447.473,22.798L447.473,22.798z
			 M358.159,399.891c-5.479,0-9.925,4.441-9.925,9.924v69.467H90.23V32.722h337.396v367.168H358.159L358.159,399.891z
			 M368.086,465.243v-45.509h45.506L368.086,465.243z"/>
	</g>
</g>
<g>
	
		<rect x="124.962" y="62.493" fill="none" stroke="#8E8E8D" stroke-width="8" stroke-miterlimit="10" width="79.386" height="19.847"/>
</g>
<g>
	
		<rect x="124.962" y="92.263" fill="none" stroke="#8E8E8D" stroke-width="8" stroke-miterlimit="10" width="129.007" height="19.847"/>
</g>
<path fill="none" stroke="#8E8E8D" stroke-width="8" stroke-miterlimit="10" d="M382.971,136.918H134.885
	c-5.479,0-9.922,4.441-9.922,9.923v282.817c0,5.479,4.44,9.926,9.922,9.926h178.624v-19.85h-94.274v-89.313h153.813v39.698h19.849
	V146.84C392.895,141.361,388.448,136.918,382.971,136.918z M373.047,191.498H219.234v-34.732h153.813V191.498z M219.234,211.345
	h153.813v39.694H219.234V211.345z M199.387,156.766v34.732h-54.58v-34.732H199.387z M144.808,419.736V211.345h54.58v208.394
	L144.808,419.736L144.808,419.736z M219.234,310.578v-39.691h153.813v39.691H219.234L219.234,310.578z"/>
<g>
	<rect x="159.694" y="226.229" fill="#8E8E8D" width="24.81" height="19.849"/>
</g>
<g>
	<rect x="159.694" y="285.771" fill="#8E8E8D" width="24.81" height="19.847"/>
</g>
<g>
	<rect x="159.694" y="345.313" fill="#8E8E8D" width="24.81" height="19.849"/>
</g>
<g>
	<rect x="159.694" y="385.005" fill="#8E8E8D" width="24.81" height="19.847"/>
</g>
</svg>
