<?xml version="1.0" encoding="utf-8"?>
<!-- Generator: Adobe Illustrator 16.0.0, SVG Export Plug-In . SVG Version: 6.00 Build 0)  -->
<!DOCTYPE svg PUBLIC "-//W3C//DTD SVG 1.1//EN" "http://www.w3.org/Graphics/SVG/1.1/DTD/svg11.dtd">
<svg version="1.1" id="Layer_1" xmlns="http://www.w3.org/2000/svg" xmlns:xlink="http://www.w3.org/1999/xlink" x="0px" y="0px"
	 width="512px" height="512px" viewBox="0 0 512 512" enable-background="new 0 0 512 512" xml:space="preserve">
<g>
	<g>
		<g>
			<path fill="none" stroke="#8E8E8D" stroke-width="10" stroke-miterlimit="10" d="M501.551,339.592h-5.229V47.021
				c0-5.771-4.678-10.449-10.445-10.449H313.469V10.448C313.469,4.678,308.787,0,303.02,0h-94.04
				c-5.771,0-10.449,4.678-10.449,10.448V36.57H26.122c-5.771,0-10.449,4.679-10.449,10.449V339.59h-5.224
				C4.678,339.592,0,344.27,0,350.04v36.569c0,5.771,4.678,10.449,10.449,10.449h159.177l-53.198,88.662l17.919,10.753
				l59.651-99.415h51.553V512h20.898V397.061h51.553l59.646,99.417l17.92-10.752l-53.193-88.665h159.178
				c5.771,0,10.449-4.678,10.449-10.447v-36.567C512,344.27,507.322,339.592,501.551,339.592z M219.429,20.898h73.143v15.673
				h-73.143V20.898L219.429,20.898z M36.572,57.469h438.856v282.123H36.572V57.469z M491.102,376.162H20.898V360.49h470.204V376.162
				L491.102,376.162z"/>
			<path fill="none" stroke="#8E8E8D" stroke-width="10" stroke-miterlimit="10" d="M177.633,94.041
				c-57.616,0-104.49,46.874-104.49,104.489c0,57.616,46.874,104.49,104.49,104.49c57.615,0,104.489-46.875,104.489-104.49
				C282.122,140.915,235.248,94.041,177.633,94.041z M177.633,282.123c-46.093,0-83.592-37.5-83.592-83.593
				c0-42.553,31.966-77.754,73.143-82.916v82.916c0,5.771,4.678,10.449,10.449,10.449h82.915
				C255.387,250.156,220.185,282.123,177.633,282.123z M188.081,188.082v-72.468c37.75,4.732,67.73,34.718,72.467,72.468H188.081z"
				/>
			
				<rect x="360.49" y="135.837" fill="none" stroke="#8E8E8D" stroke-width="10" stroke-miterlimit="10" width="73.146" height="20.897"/>
			
				<rect x="360.49" y="167.184" fill="none" stroke="#8E8E8D" stroke-width="10" stroke-miterlimit="10" width="73.146" height="20.898"/>
			
				<rect x="360.49" y="198.531" fill="none" stroke="#8E8E8D" stroke-width="10" stroke-miterlimit="10" width="73.146" height="20.898"/>
			
				<rect x="360.49" y="104.49" fill="none" stroke="#8E8E8D" stroke-width="10" stroke-miterlimit="10" width="47.021" height="20.898"/>
			<path fill="none" stroke="#8E8E8D" stroke-width="10" stroke-miterlimit="10" d="M339.59,125.387v-20.898H292.57
				c-2.771,0-5.43,1.102-7.389,3.062l-15.675,15.673l14.778,14.778l12.607-12.614L339.59,125.387L339.59,125.387z"/>
			
				<rect x="323.918" y="245.551" fill="none" stroke="#8E8E8D" stroke-width="10" stroke-miterlimit="10" width="120.159" height="20.898"/>
			
				<rect x="292.572" y="282.123" fill="none" stroke="#8E8E8D" stroke-width="10" stroke-miterlimit="10" width="151.51" height="20.896"/>
		</g>
	</g>
</g>
</svg>
