<?xml version="1.0" encoding="utf-8"?>
<!-- Generator: Adobe Illustrator 16.0.0, SVG Export Plug-In . SVG Version: 6.00 Build 0)  -->
<!DOCTYPE svg PUBLIC "-//W3C//DTD SVG 1.1//EN" "http://www.w3.org/Graphics/SVG/1.1/DTD/svg11.dtd">
<svg version="1.1" id="Capa_1" xmlns="http://www.w3.org/2000/svg" xmlns:xlink="http://www.w3.org/1999/xlink" x="0px" y="0px"
	 width="512px" height="512px" viewBox="0 0 512 512" enable-background="new 0 0 512 512" xml:space="preserve">
<path fill="none" stroke="#8E8E8D" stroke-width="10" stroke-miterlimit="10" d="M440.067,27.141H88.93
	c-9.604,0-17.41,7.806-17.41,17.41v417.417c0,9.651,7.808,17.411,17.41,17.411h351.113c9.604,0,17.408-7.76,17.408-17.411V44.552
	C457.479,34.923,449.646,27.141,440.067,27.141z M422.656,444.558H106.34V61.984h316.293v382.574H422.656z"/>
<path fill="none" stroke="#8E8E8D" stroke-width="7" stroke-miterlimit="10" d="M219.104,137.563h-63.726v63.704h63.703v-63.704
	H219.104z M211.346,158.711l-28.291,28.291c-0.734,0.757-1.987,0.757-2.72,0l-17.244-17.315c-0.733-0.757-0.733-1.988,0-2.768
	l4.14-4.069c0.733-0.781,1.964-0.781,2.744,0l11.757,11.804l22.78-22.78c0.781-0.758,1.987-0.758,2.769,0l4.094,4.115
	C212.125,156.724,212.125,157.953,211.346,158.711z"/>
<rect x="232.398" y="151.898" fill="none" stroke="#8E8E8D" stroke-width="7" stroke-miterlimit="10" width="145.738" height="35.033"/>
<path fill="none" stroke="#8E8E8D" stroke-width="7" stroke-miterlimit="10" d="M219.104,220.639h-63.726v63.679h63.703v-63.679
	H219.104L219.104,220.639z M211.346,241.763l-28.291,28.292c-0.734,0.756-1.987,0.756-2.72,0L163.09,252.74
	c-0.733-0.758-0.733-1.986,0-2.743l4.14-4.093c0.733-0.758,1.964-0.758,2.744,0l11.757,11.805l22.78-22.78
	c0.781-0.758,1.987-0.758,2.769,0l4.094,4.092C212.125,239.777,212.125,241.006,211.346,241.763z"/>
<rect x="232.398" y="234.95" fill="none" stroke="#8E8E8D" stroke-width="7" stroke-miterlimit="10" width="145.738" height="35.03"/>
<rect x="155.401" y="305.536" fill="none" stroke="#8E8E8D" stroke-width="7" stroke-miterlimit="10" width="63.704" height="63.704"/>
<rect x="232.398" y="319.896" fill="none" stroke="#8E8E8D" stroke-width="7" stroke-miterlimit="10" width="145.738" height="35.01"/>
</svg>
