<?xml version="1.0" encoding="utf-8"?>
<!-- Generator: Adobe Illustrator 16.0.0, SVG Export Plug-In . SVG Version: 6.00 Build 0)  -->
<!DOCTYPE svg PUBLIC "-//W3C//DTD SVG 1.1//EN" "http://www.w3.org/Graphics/SVG/1.1/DTD/svg11.dtd">
<svg version="1.1" id="Capa_1" xmlns="http://www.w3.org/2000/svg" xmlns:xlink="http://www.w3.org/1999/xlink" x="0px" y="0px"
	 width="512px" height="512px" viewBox="0 0 512 512" enable-background="new 0 0 512 512" xml:space="preserve">
<path fill="none" stroke="#8E8E8D" stroke-width="10" stroke-miterlimit="10" d="M3.388,405.531L2.837,172.838
	c-0.026-11.45,11.671-19.19,22.198-14.69l211.833,90.555c5.854,2.502,9.646,8.248,9.671,14.613l0.551,232.688
	c0.026,11.45-11.671,19.19-22.198,14.69l-211.833-90.55C7.205,417.645,3.403,411.898,3.388,405.531z M478.739,183.791
	L283.26,268.452l0.51,215.346l195.479-84.659L478.739,183.791 M486.649,155.717c8.401-0.021,15.941,6.738,15.963,15.914
	l0.551,232.693c0.021,6.365-3.761,12.131-9.604,14.658L282.16,510.54c-2.086,0.902-4.229,1.324-6.313,1.33
	c-8.396,0.021-15.938-6.737-15.966-15.914l-0.551-232.692c-0.021-6.367,3.761-12.132,9.604-14.661l211.399-91.555
	C482.431,156.143,484.567,155.723,486.649,155.717L486.649,155.717z M254.454,39.651l-202.78,90.541l203.206,89.579l202.771-90.54
	L254.454,39.651 M254.396,16c2.202-0.005,4.406,0.445,6.465,1.354l222.874,98.25c12.646,5.574,12.688,23.498,0.067,29.131
	L261.396,244.04c-2.055,0.918-4.256,1.379-6.458,1.385c-2.202,0.005-4.406-0.446-6.466-1.354L25.6,145.819
	c-12.644-5.572-12.686-23.498-0.069-29.131l222.405-99.304C249.991,16.467,252.193,16.005,254.396,16L254.396,16z"/>
</svg>
