<?xml version="1.0" encoding="utf-8"?>
<!-- Generator: Adobe Illustrator 16.0.0, SVG Export Plug-In . SVG Version: 6.00 Build 0)  -->
<!DOCTYPE svg PUBLIC "-//W3C//DTD SVG 1.1//EN" "http://www.w3.org/Graphics/SVG/1.1/DTD/svg11.dtd">
<svg version="1.1" id="Capa_1" xmlns="http://www.w3.org/2000/svg" xmlns:xlink="http://www.w3.org/1999/xlink" x="0px" y="0px"
	 width="512px" height="512px" viewBox="0 0 512 512" enable-background="new 0 0 512 512" xml:space="preserve">
<g>
	<path fill="none" stroke="#8E8E8D" stroke-width="10" stroke-miterlimit="10" d="M440.063,315.545v-19.568h8.291
		c4.588,0,8.293-3.707,8.293-8.293s-3.707-8.291-8.293-8.291h-8.291h-8.293H315.673h-8.293h-8.291c-4.587,0-8.292,3.705-8.292,8.291
		s3.706,8.293,8.292,8.293h8.291v19.568c0,29.314,15.3,55.96,40.027,71.648c-24.721,15.688-40.027,42.335-40.027,71.648v19.569
		h-8.291c-4.587,0-8.292,3.707-8.292,8.292c0,4.586,3.706,8.292,8.292,8.292h8.291h8.293H431.77h8.293h8.291
		c4.587,0,8.293-3.707,8.293-8.292c0-4.586-3.706-8.292-8.293-8.292h-8.291v-19.569c0-29.313-15.3-55.96-40.029-71.648
		C424.763,371.505,440.063,344.861,440.063,315.545z M423.478,458.844v19.57h-99.512v-19.57c0-27.521,16.857-52.227,43.098-63.355
		h13.31C406.617,406.617,423.478,431.313,423.478,458.844z M380.38,378.902H367.07c-26.237-11.129-43.097-35.824-43.097-63.356
		v-19.569h99.512v19.569C423.478,343.077,406.617,367.773,380.38,378.902z"/>
	<path fill="none" stroke="#8E8E8D" stroke-width="10" stroke-miterlimit="10" d="M257.625,138.415h149.267
		c4.587,0,8.293-3.707,8.293-8.292s-3.706-8.292-8.293-8.292H257.625c-4.587,0-8.293,3.707-8.293,8.292
		S253.038,138.415,257.625,138.415z"/>
	<path fill="none" stroke="#8E8E8D" stroke-width="10" stroke-miterlimit="10" d="M257.625,254.513h149.267
		c4.587,0,8.293-3.706,8.293-8.293c0-4.585-3.706-8.292-8.293-8.292H257.625c-4.587,0-8.293,3.707-8.293,8.292
		C249.332,250.807,253.038,254.513,257.625,254.513z"/>
	<path fill="none" stroke="#8E8E8D" stroke-width="10" stroke-miterlimit="10" d="M204.377,82.365
		c-3.467-2.969-8.708-2.596-11.687,0.896l-51.812,60.438l-31.695-23.767c-3.657-2.744-8.855-2.015-11.601,1.658
		c-2.753,3.657-2.007,8.857,1.658,11.601l37.905,28.436c1.483,1.119,3.234,1.658,4.967,1.658c2.348,0,4.671-0.986,6.304-2.902
		l56.861-66.341C208.267,90.575,207.86,85.35,204.377,82.365z"/>
	<path fill="none" stroke="#8E8E8D" stroke-width="10" stroke-miterlimit="10" d="M204.377,198.463
		c-3.467-2.978-8.708-2.588-11.687,0.895l-51.812,60.437l-31.695-23.767c-3.657-2.744-8.855-2.015-11.601,1.659
		c-2.753,3.657-2.007,8.856,1.658,11.6l37.905,28.436c1.483,1.12,3.234,1.659,4.967,1.659c2.348,0,4.671-0.985,6.304-2.903
		l56.861-66.339C208.267,206.672,207.86,201.448,204.377,198.463z"/>
	<path fill="none" stroke="#8E8E8D" stroke-width="10" stroke-miterlimit="10" d="M192.692,323.756l-51.812,60.43l-31.695-23.768
		c-3.657-2.736-8.855-2.016-11.601,1.658c-2.753,3.656-2.007,8.857,1.658,11.604l37.905,28.437c1.483,1.116,3.234,1.655,4.968,1.655
		c2.347,0,4.67-0.984,6.303-2.9l56.861-66.333c2.984-3.476,2.589-8.708-0.896-11.687
		C200.911,319.883,195.67,320.264,192.692,323.756z"/>
	<path fill="none" stroke="#8E8E8D" stroke-width="10" stroke-miterlimit="10" d="M380.555,22.319H134.694
		c-55.677,0-100.971,45.294-100.971,100.972V369.15c0,55.678,45.294,100.973,100.971,100.973h114.64
		c4.586,0,8.293-3.708,8.293-8.293c0-4.586-3.708-8.292-8.293-8.292h-114.64c-46.538,0-84.385-37.849-84.385-84.388V123.291
		c0-46.539,37.85-84.387,84.385-84.387h245.861c46.539,0,84.386,37.848,84.386,84.387V246.22c0,4.587,3.708,8.293,8.292,8.293
		c4.587,0,8.293-3.706,8.293-8.293V123.291C481.526,67.613,436.231,22.319,380.555,22.319z"/>
</g>
</svg>
